<?xml version="1.0" encoding="UTF-8" standalone="no"?>
<!-- Created with Inkscape (http://www.inkscape.org/) -->

<svg
   width="158.41666mm"
   height="235.59691mm"
   viewBox="0 0 158.41666 235.59691"
   version="1.1"
   id="svg1"
   xmlns="http://www.w3.org/2000/svg"
   xmlns:svg="http://www.w3.org/2000/svg">
  <defs
     id="defs1" />
  <g
     id="layer1"
     style="display:none"
     transform="translate(-21.503356,-18.38055)">
    <path
       style="fill:none;stroke:#000000;stroke-width:8;stroke-linejoin:round;stroke-dasharray:none;stroke-opacity:1"
       d="M 178.86247,171.36563 V 124.39396 69.189575 H 27.60245 V 220.44959 h 102.90607 m 10.92992,0 h 37.42403 v -16.16407 m -23.48917,-8.45769 18.52077,-0.0362 H 83.174768 c -4.485548,0 -8.096663,-3.61112 -8.096663,-8.09667 0,-4.48554 3.611115,-8.09666 8.096663,-8.09666 h 71.858182 18.86112 l -15.52805,-0.0353"
       id="rect1" />
    <path
       style="fill:none;stroke:#000000;stroke-width:7.99999;stroke-linecap:round;stroke-linejoin:miter;stroke-dasharray:none;stroke-opacity:1"
       d="m 136.72451,162.56455 57.25199,25.11281"
       id="path4" />
    <path
       style="fill:none;stroke:#000000;stroke-width:7.99999;stroke-linecap:round;stroke-linejoin:miter;stroke-dasharray:none;stroke-opacity:1"
       d="m 136.73345,212.77766 57.25199,-25.11281"
       id="path4-1" />
  </g>
  <g
     id="layer2"
     transform="translate(-21.503356,-18.38055)">
    <path
       id="rect4"
       style="fill:none;stroke:#000000;stroke-width:7.4451;stroke-linecap:round;stroke-linejoin:miter;stroke-dasharray:none;stroke-opacity:1"
       d="m 139.05026,92.90822 c 4.1146,-7.309009 6.30425,-15.727986 6.32571,-24.321718 -1.6e-4,-25.672069 -18.94457,-46.483322 -42.31367,-46.483403 -23.369106,8e-5 -42.313516,20.811333 -42.313676,46.483403 0.008,8.298971 2.038345,16.444264 5.88017,23.589965 m 72.421466,0.731753 c -7.68297,13.74664 -21.30415,22.13483 -35.98796,22.16213 C 88.085457,115.06003 74.22933,106.35317 66.628794,92.176467 37.765653,99.194142 25.225906,114.77526 25.225906,126.71773 V 250.2549 H 176.19746 V 127.26755 c 0,-13.12355 -11.15025,-27.338164 -37.1472,-34.35933 z" />
    <path
       style="fill:none;stroke:#000000;stroke-width:3.72255;stroke-linecap:round;stroke-linejoin:miter;stroke-dasharray:none;stroke-opacity:1"
       id="path8"
       d="m 65.85668,76.812808 c 1.160225,-1.250171 2.762572,-2.100994 4.326036,-2.930745 0.144492,-0.08213 0.996426,-0.555591 1.151539,-0.682652 0.86373,-0.707524 1.184881,-1.836449 1.522891,-2.772057 0.8989,-3.093389 1.715429,-6.205357 2.671813,-9.286066 0.343771,-0.836589 0.50821,-1.834942 1.369529,-2.429986 1.205084,-0.83254 2.94952,-1.173366 4.372722,-1.580968 3.024599,-0.755765 6.083575,-1.440848 9.198818,-1.860294 2.524006,-0.339836 3.591919,-0.391597 6.169289,-0.601793 4.542303,-0.313125 9.099053,-0.406814 13.654073,-0.430917 2.62571,-0.05034 5.23886,0.159518 7.82546,0.530586 2.52012,0.386118 5.01896,0.883935 7.45968,1.548639 1.32565,0.365144 2.66059,0.695951 3.97091,1.098719 0.39907,0.163351 0.85424,0.169423 1.26967,0.27495 0.44184,0.112237 0.86033,0.288145 1.30609,0.399654 0.92887,0.208249 1.84827,0.447305 2.77546,0.663043 1.24027,0.579612 3.34984,1.320543 -2.40034,-1.180337 -0.1092,-0.0475 0.16018,0.161342 0.21757,0.254276 0.1392,0.225388 0.17869,0.459011 0.24214,0.704078 0.19123,1.340271 0.1469,2.69727 0.14903,4.045252 -0.0701,1.368598 -0.23419,2.731909 -0.32734,4.099429 -0.19727,1.50771 0.82771,2.7461 1.764,3.936785 1.51593,1.747579 3.08978,3.470174 4.87001,5.025932 0,0 3.59256,1.276351 3.59256,1.276351 v 0 c -1.84221,-1.50802 -3.41357,-3.241546 -4.94478,-4.982592 -0.88152,-1.104299 -1.92266,-2.303353 -1.79663,-3.709497 0.0781,-1.377339 0.21542,-2.750825 0.30813,-4.12735 0.009,-1.359347 0.0327,-2.721369 -0.0602,-4.078878 -0.0323,-0.172975 -0.18368,-1.057775 -0.34211,-1.153146 -1.29236,-0.777921 -2.80482,-1.73015 -4.40292,-2.178926 -0.92228,-0.222926 -1.84452,-0.445479 -2.76574,-0.671592 -0.85013,-0.246493 -1.70406,-0.464519 -2.56451,-0.681626 -1.29623,-0.384957 -2.62017,-0.694488 -3.92668,-1.052324 -2.44641,-0.627272 -4.94259,-1.104933 -7.45569,-1.48856 -2.6005,-0.350214 -5.22538,-0.554342 -7.86093,-0.482106 -4.49402,0.07896 -8.983792,0.298586 -13.466517,0.578046 -2.61684,0.206854 -3.676903,0.256342 -6.241912,0.589508 -3.154392,0.40972 -6.253353,1.080352 -9.313603,1.846076 -1.51298,0.418976 -3.34598,0.762049 -4.602804,1.671236 -0.904292,0.654167 -1.050297,1.688563 -1.376365,2.596691 -0.870827,3.08826 -1.694802,6.186612 -2.710917,9.243331 -0.625416,1.578664 -0.879057,2.352907 -2.575669,3.23745 -1.569669,0.877716 -3.164729,1.759693 -4.431091,2.96197 z" />
  </g>
</svg>
